#!OML:ASF H:\Terrain\Patient Classification 1\Animal1\Tuesday\Animal1.ASF
:FULLY-SPECIFIED
:DEGREES
1171
root 19.7039 17.9086 -6.77257 -169.292 -126.227 -179.849
lowerback 1.83064 -1.09563 -3.64463
upperback -1.05213 -1.70628 -4.40816
thorax -2.14156 -0.857307 -2.43112
lowerneck 2.70392 -2.50048 -0.886673
upperneck 29.9976 -8.49214 14.1258
head 9.70447 -3.29867 4.48153
rclavicle -1.37161e-014 -2.06736e-014
rhumerus 15.3604 -18.1117 14.6137
rradius 52.5993
rwrist -37.4572
rhand 6.62697 11.5164
rfingers 7.12502
rthumb 31.9205 -15.7055
lclavicle -1.37161e-014 -2.06736e-014
lhumerus 43.4189 12.6172 7.84437
lradius 39.1067
lwrist -29.4535
lhand 19.7906 40.8525
lfingers 7.12502
lthumb 44.34 -655.393
rfemur -29.8822 -0.254497 21.2253
rtibia 37.6262
rfoot 15.1269 -3.07764
rtoes -32.3793
lfemur -27.8689 13.7795 -19.4618
ltibia 44.0068
lfoot 5.45347 7.8888
ltoes 18.8133
1172
root 19.6784 17.9025 -6.86357 -168.671 -125.794 -180.547
lowerback 1.63943 -1.32082 -3.59509
upperback -1.18087 -1.98934 -4.11308
thorax -2.16162 -0.994372 -2.14659
lowerneck 2.79406 -2.25753 -0.949759
upperneck 30.0373 -8.07222 13.8182
head 9.64574 -3.14367 4.41317
rclavicle 6.34123e-014 2.8625e-014
rhumerus 15.8901 -19.0823 14.5057
rradius 51.0505
rwrist -34.2013
rhand 6.79985 10.8986
rfingers 7.12502
rthumb 32.0852 -16.2902
lclavicle 6.34123e-014 2.8625e-014
lhumerus 43.6155 12.8706 8.40283
lradius 39.2507
lwrist -29.5219
lhand 18.9579 40.2571
lfingers 7.12502
lthumb 43.563 -655.699
rfemur -30.0588 -0.526126 21.0951
rtibia 38.2131
rfoot 15.2649 -5.41792
rtoes -30.3012
lfemur -27.5333 13.7227 -19.2367
ltibia 43.5636
lfoot 5.86834 8.62966
ltoes 15.8519
1173
root 19.6499 17.9087 -6.94878 -168.36 -125.439 -181.045
lowerback 1.56799 -1.51843 -3.55354
upperback -1.24979 -2.2414 -3.851
thorax -2.1858 -1.11629 -1.89168
lowerneck 2.67084 -2.06094 -1.27809
upperneck 30.2125 -7.77179 13.6631
head 9.7039 -3.04485 4.44062
rclavicle -2.64384e-014 -5.08889e-014
rhumerus 16.4328 -20.2196 14.3706
rradius 49.1031
rwrist -30.7279
rhand 6.73303 11.49
rfingers 7.12502
rthumb 32.0215 -15.7116
lclavicle -2.64384e-014 -5.08889e-014
lhumerus 43.704 13.0331 8.86606
lradius 39.8729
lwrist -28.9002
lhand 18.0878 40.0551
lfingers 7.12502
lthumb 42.7497 -655.611
rfemur -29.9614 -0.769703 20.658
rtibia 38.695
rfoot 14.523 -8.29403
rtoes -26.9094
lfemur -26.8912 13.1105 -18.8305
ltibia 42.8519
lfoot 5.75151 10.4945
ltoes 22.4048
1174
root 19.6218 17.905 -7.03372 -168.092 -125.151 -181.401
lowerback 1.50122 -1.70004 -3.53667
upperback -1.40866 -2.47874 -3.59451
thorax -2.30263 -1.22947 -1.62845
lowerneck 2.62201 -1.91267 -1.70327
upperneck 30.4371 -7.5409 13.5105
head 9.7762 -2.99189 4.48474
rclavicle -3.97569e-016 -2.22639e-014
rhumerus 16.955 -21.4416 14.0645
rradius 47.4672
rwrist -27.0282
rhand 6.03859 12.0891
rfingers 7.12502
rthumb 31.3601 -15.2431
lclavicle -3.97569e-016 -2.22639e-014
lhumerus 43.9721 13.1439 9.65525
lradius 40.449
lwrist -28.3511
lhand 17.2341 39.767
lfingers 7.12502
lthumb 41.9503 -655.626
rfemur -29.9097 -1.04178 20.0405
rtibia 39.134
rfoot 13.4221 -10.3483
rtoes -24.1923
lfemur -26.2624 12.375 -18.439
ltibia 41.7725
lfoot 5.86739 12.3759
ltoes 26.6233
1175
root 19.5965 17.882 -7.12123 -167.811 -124.926 -181.809
lowerback 1.50239 -1.94504 -3.50912
upperback -1.54906 -2.8025 -3.32011
thorax -2.43619 -1.38527 -1.34795
lowerneck 2.62197 -1.80327 -2.20854
upperneck 30.6189 -7.35448 13.3617
head 9.82957 -2.97374 4.54072
rclavicle -1.54257e-013 -4.13472e-014
rhumerus 17.6144 -22.6565 13.6859
rradius 46.1853
rwrist -23.6539
rhand 6.32558 11.6121
rfingers 7.12502
rthumb 31.6335 -15.6667
lclavicle -1.54257e-013 -4.13472e-014
lhumerus 44.3269 13.3515 10.7218
lradius 40.8773
lwrist -28.1141
lhand 16.4776 39.4026
lfingers 7.12502
lthumb 41.2406 -655.758
rfemur -29.826 -1.47622 19.4606
rtibia 39.5457
rfoot 12.9444 -11.2843
rtoes -23.0274
lfemur -25.4901 11.6308 -18
ltibia 40.3471
lfoot 6.75443 13.5975
ltoes 26.8198
1176
root 19.5713 17.8686 -7.2053 -167.704 -124.802 -182.054
lowerback 1.54407 -2.24124 -3.66675
upperback -1.64463 -3.19509 -2.93941
thorax -2.52711 -1.57053 -0.852188
lowerneck 2.80946 -1.75027 -3.1094
upperneck 30.4171 -7.22669 13.4875
head 9.72698 -3.01767 4.75571
rclavicle 9.06458e-014 4.29375e-014
rhumerus 18.3641 -23.9419 13.496
rradius 44.995
rwrist -21.0791
rhand 7.21878 11.2868
rfingers 7.12502
rthumb 32.4839 -15.8209
lclavicle 9.06458e-014 4.29375e-014
lhumerus 44.4333 13.535 11.7892
lradius 41.6454
lwrist -27.1699
lhand 15.9301 39.8756
lfingers 7.12502
lthumb 40.7264 -655.122
rfemur -29.5423 -1.79649 18.6396
rtibia 39.8643
rfoot 11.5462 -13.7028
rtoes -15.4582
lfemur -24.5616 10.141 -17.5093
ltibia 38.7896
lfoot 7.13859 14.8862
ltoes 29.8514
1177
root 19.5464 17.8542 -7.28808 -167.398 -124.818 -182.551
lowerback 1.64165 -2.50075 -3.60543
upperback -1.76665 -3.53339 -2.47989
thorax -2.67808 -1.73002 -0.395613
lowerneck 3.05098 -1.43318 -3.54759
upperneck 29.889 -6.60147 13.3522
head 9.41743 -2.79907 4.81545
rclavicle 6.38099e-014 4.77083e-014
rhumerus 18.9499 -25.154 13.4708
rradius 44.0228
rwrist -19.0094
rhand 6.6696 11.5647
rfingers 7.12502
rthumb 31.9611 -15.649
lclavicle 6.38099e-014 4.77083e-014
lhumerus 44.5465 13.4737 12.7096
lradius 42.5101
lwrist -26.0215
lhand 14.9134 40.4983
lfingers 7.12502
lthumb 39.7701 -654.207
rfemur -29.0855 -1.95162 17.9036
rtibia 40.0513
rfoot 8.30514 -17.4431
rtoes 0.444723
lfemur -23.7207 8.47617 -16.8541
ltibia 37.3188
lfoot 7.5275 15.983
ltoes 32.079
1178
root 19.5232 17.8087 -7.37069 -166.488 -124.88 -183.831
lowerback 1.78211 -2.87775 -3.08675
upperback -1.87249 -4.01247 -1.96782
thorax -2.85465 -1.96786 -0.130265
lowerneck 2.84193 -1.43524 -4.16528
upperneck 30.4986 -6.56181 12.8902
head 9.6779 -2.87533 4.77825
rclavicle 5.36719e-015 2.8625e-014
rhumerus 20.1028 -26.7449 12.525
rradius 43.2436
rwrist -16.9762
rhand 6.12531 11.6608
rfingers 7.12502
rthumb 31.4427 -15.6554
lclavicle 5.36719e-015 2.8625e-014
lhumerus 44.3158 13.412 13.0375
lradius 43.1291
lwrist -25.596
lhand 13.5084 40.1279
lfingers 7.12502
lthumb 38.4458 -654.196
rfemur -28.6436 -2.3732 17.8087
rtibia 40.0931
rfoot 7.47369 -19.3087
rtoes 5.81086
lfemur -23.0077 7.41335 -15.7768
ltibia 36.1538
lfoot 7.57693 16.8548
ltoes 33.0881
1179
root 19.4991 17.7537 -7.44953 -165.629 -124.833 -184.997
lowerback 1.84783 -3.27379 -2.66234
upperback -2.00423 -4.51721 -1.482
thorax -3.01058 -2.2184 0.160071
lowerneck 3.77011 -0.904326 -4.63733
upperneck 29.2868 -5.66838 13.1701
head 8.97148 -2.53899 4.99486
rclavicle 5.6753e-014 2.54444e-014
rhumerus 21.5724 -28.5243 10.9912
rradius 42.796
rwrist -15.2758
rhand 6.78193 10.4799
rfingers 7.12502
rthumb 32.0681 -16.7124
lclavicle 5.6753e-014 2.54444e-014
lhumerus 43.9264 13.3162 13.2015
lradius 43.6784
lwrist -25.0765
lhand 12.2297 39.6797
lfingers 7.12502
lthumb 37.2379 -654.318
rfemur -28.3264 -2.92679 17.6436
rtibia 40.067
rfoot 9.29639 -19.692
rtoes 2.09185
lfemur -22.3657 6.58268 -14.7783
ltibia 35.4823
lfoot 4.72036 18.3939
ltoes 37.853
1180
root 19.475 17.689 -7.53321 -164.935 -124.763 -185.867
lowerback 1.86418 -3.57498 -2.39849
upperback -2.15392 -4.89939 -1.01146
thorax -3.14692 -2.40555 0.51732
lowerneck 3.2098 -0.645177 -4.88041
upperneck 30.2339 -5.23484 12.4295
head 9.36128 -2.39494 4.82523
rclavicle 4.80065e-014 1.27222e-014
rhumerus 22.6627 -29.872 9.95021
rradius 42.4656
rwrist -14.3075
rhand 7.04799 8.76732
rfingers 7.12502
rthumb 32.3214 -18.3736
lclavicle 4.80065e-014 1.27222e-014
lhumerus 43.8223 13.1004 13.59
lradius 44.2557
lwrist -24.0079
lhand 10.9381 39.8392
lfingers 7.12502
lthumb 36.0156 -653.848
rfemur -28.0985 -3.08756 17.1635
rtibia 40.0695
rfoot 11.0305 -20.1605
rtoes -0.203631
lfemur -21.9073 6.09896 -14.0204
ltibia 35.2714
lfoot 0.15786 19.3899
ltoes 42.362
1181
root 19.4543 17.5979 -7.62409 -164.059 -124.735 -186.779
lowerback 1.8725 -3.89239 -2.08289
upperback -2.38242 -5.30364 -0.541093
thorax -3.36167 -2.60445 0.850844
lowerneck 3.46177 -0.274487 -5.31618
upperneck 29.7909 -4.6061 12.3846
head 9.08615 -2.16271 4.91449
rclavicle 7.67309e-014 4.77083e-015
rhumerus 23.6657 -30.8525 9.12443
rradius 41.9803
rwrist -13.7053
rhand 6.22326 8.71038
rfingers 7.12502
rthumb 31.536 -18.5875
lclavicle 7.67309e-014 4.77083e-015
lhumerus 43.5904 12.7161 13.6647
lradius 45.0743
lwrist -22.8131
lhand 9.98577 40.2137
lfingers 7.12502
lthumb 35.1128 -653.257
rfemur -28.0769 -2.94481 16.6199
rtibia 40.1718
rfoot 11.743 -21.3351
rtoes 2.33566
lfemur -21.7549 6.29376 -13.3814
ltibia 35.2348
lfoot -1.51238 19.2144
ltoes 37.9349
1182
root 19.4361 17.4994 -7.71703 -163.466 -124.627 -187.305
lowerback 1.96232 -4.18141 -1.94296
upperback -2.70843 -5.68411 -0.17178
thorax -3.7159 -2.78674 1.19021
lowerneck 3.89189 0.0418741 -5.54553
upperneck 29.3525 -4.04963 12.1925
head 8.7869 -1.96068 4.906
rclavicle -2.23633e-014 -1.74931e-014
rhumerus 24.3892 -31.3928 8.7046
rradius 41.6798
rwrist -13.7091
rhand 5.09266 8.9385
rfingers 7.12502
rthumb 30.4584 -18.5648
lclavicle -2.23633e-014 -1.74931e-014
lhumerus 43.1454 12.0187 13.2915
lradius 46.1696
lwrist -21.4776
lhand 9.09997 40.6793
lfingers 7.12502
lthumb 34.2722 -652.598
rfemur -28.2011 -3.00666 15.8091
rtibia 40.3968
rfoot 11.6156 -22.4414
rtoes 7.88013
lfemur -21.6918 6.48076 -12.9426
ltibia 35.2036
lfoot -1.02828 18.8364
ltoes 22.7676
1183
root 19.4168 17.4147 -7.81072 -163.271 -124.416 -187.528
lowerback 2.14623 -4.40713 -2.02424
upperback -2.90966 -5.98782 0.139594
thorax -3.97798 -2.92603 1.59262
lowerneck 3.9248 0.203099 -6.04337
upperneck 29.2375 -3.78072 12.1687
head 8.71395 -1.89127 4.99904
rclavicle -5.27773e-014 1.51076e-014
rhumerus 25.1685 -32.1358 8.30421
rradius 41.4274
rwrist -13.9593
rhand 4.60746 8.24995
rfingers 7.12502
rthumb 29.9955 -19.3381
lclavicle -5.27773e-014 1.51076e-014
lhumerus 42.8955 11.4893 13.1268
lradius 47.1663
lwrist -20.4784
lhand 8.13715 40.726
lfingers 7.12502
lthumb 33.3574 -652.35
rfemur -28.22 -3.28069 14.8289
rtibia 40.6564
rfoot 13.0112 -22.3234
rtoes 8.64708
lfemur -21.4077 6.41417 -12.4839
ltibia 35.0641
lfoot -2.30725 18.6226
ltoes 14.6742
